# xmcd
#
# Track frame offsets: 
#        150
#        5900
#        13575
#        19738
#        26188
#        32763
#        40100
#        46613
#        53888
#        60013
#        76888
#        92888
#        106363
#
# Disc length: 1609 seconds
#
# Revision: 0
# Processed by: cddbd v1.5.1PL0 Copyright (c) Steve Scherf et al.
# Submitted via: ExactAudioCopy v0.95a5
#
DISCID=9406470d
DTITLE=Silver Andrey - Passodobles Mix
DYEAR=1996
DGENRE=Folklore
TTITLE0=EL GATO MONTES
TTITLE1=EN ER MUNDO
TTITLE2=LA MORENA DE MI COPLA
TTITLE3=ESPANA CANI
TTITLE4=VALENCIA
TTITLE5=SUSPIROS DE ESPANA
TTITLE6=GALLITO
TTITLE7=EL RELICARIO
TTITLE8=EL GATO MONTES
TTITLE9=LA NOVIA DE ESPANA
TTITLE10=ISLAS CANARIAS
TTITLE11=LUNA DE ESPANA
TTITLE12=VIVA LA VIRGEN
EXTD=
EXTT0=
EXTT1=
EXTT2=
EXTT3=
EXTT4=
EXTT5=
EXTT6=
EXTT7=
EXTT8=
EXTT9=
EXTT10=
EXTT11=
EXTT12=
PLAYORDER=
